# xmcd CD database file
#
# Track frame offsets:
#	150
#	19028
#	36573
#	49652
#	66840
#	79961
#	97749
#	113696
#	125997
#	141113
#	159592
#	175506
#	198397
#	220913
#	232675
#	247489
#	260425
#	274254
#	290254
#	309998
#	331955
#
# Disc length: 4549 seconds
#
# Revision: 3
# Processed by: cddbd v1.5.1PL2 Copyright (c) Steve Scherf et al.
# Submitted via: CDex 1.51
#
DISCID=3111c315
DTITLE=Blues Brews Barbeques - Volume 3
DYEAR=2004
DGENRE=Blues
TTITLE0=Crowbar - Oh What A Feeling
TTITLE1=Downchild - It's A Matter Of Time
TTITLE2=Daddy Long Legs - Pick Up Line
TTITLE3=Koko Taylor - Voodoo Woman
TTITLE4=Loco Zydeco - Bucket Of Crawfish
TTITLE5=Jack de Keyzer - Your Pleasure Is My Business
TTITLE6=Brent Parkin - Satellite Dish
TTITLE7=Lazy Lester - Alligator Shuffle
TTITLE8=James Anthony - Look A Little Closer
TTITLE9=Soul Kings - Swank
TTITLE10=Shane Gang - South Side Boy
TTITLE11=Fruteland Jackson - Blues 2.0
TTITLE12=Mel Brown - I Want To Hold Onto You Baby
TTITLE13=Mighty Revelators - Nobody's Fault
TTITLE14=Julian Fauth - Sorry Don't Cut No Ice
TTITLE15=Brandon Alexander and Brickhouse - Spare Change Blues
TTITLE16=Dave Mowatt - Peggy Day
TTITLE17=Poor Charlie - Death Letter
TTITLE18=Mo' Kauffey - Whatcha Gonna Do
TTITLE19=Matt Osborne - Crashing Down Blues
TTITLE20=B3 Shufflers - Blues Brews and Barbeques Blues
EXTD=YEAR: 2004
EXTT0=
EXTT1=
EXTT2=
EXTT3=
EXTT4=
EXTT5=
EXTT6=
EXTT7=
EXTT8=
EXTT9=
EXTT10=
EXTT11=
EXTT12=
EXTT13=
EXTT14=
EXTT15=
EXTT16=
EXTT17=
EXTT18=
EXTT19=
EXTT20=
PLAYORDER=
